<?xml version="1.0" standalone="no"?><!DOCTYPE svg PUBLIC "-//W3C//DTD SVG 1.1//EN" "http://www.w3.org/Graphics/SVG/1.1/DTD/svg11.dtd"><svg t="1735896500000" class="icon" viewBox="0 0 1024 1024" version="1.1" xmlns="http://www.w3.org/2000/svg" p-id="3000" xmlns:xlink="http://www.w3.org/1999/xlink" width="128" height="128"><path d="M512 1024C229.2224 1024 0 794.7776 0 512S229.2224 0 512 0s512 229.2224 512 512-229.2224 512-512 512z" fill="#FC5531" p-id="3001"></path><path d="M738.133333 341.333333H285.866667c-25.6 0-42.666667 17.066667-42.666667 42.666667v256c0 25.6 17.066667 42.666667 42.666667 42.666667h452.266666c25.6 0 42.666667-17.066667 42.666667-42.666667V384c0-25.6-17.066667-42.666667-42.666667-42.666667z m-17.066666 256H302.933333V426.666667h418.133334v170.666666z" fill="#FFFFFF" p-id="3002"></path><path d="M341.333333 469.333333h85.333334v85.333334h-85.333334zM469.333333 469.333333h213.333334v42.666667h-213.333334zM469.333333 512h170.666667v42.666667h-170.666667z" fill="#FFFFFF" p-id="3003"></path></svg>
