<?xml version="1.0" standalone="no"?><!DOCTYPE svg PUBLIC "-//W3C//DTD SVG 1.1//EN" "http://www.w3.org/Graphics/SVG/1.1/DTD/svg11.dtd"><svg t="1735896600000" class="icon" viewBox="0 0 1024 1024" version="1.1" xmlns="http://www.w3.org/2000/svg" p-id="4000" xmlns:xlink="http://www.w3.org/1999/xlink" width="128" height="128"><path d="M512 1024C229.2224 1024 0 794.7776 0 512S229.2224 0 512 0s512 229.2224 512 512-229.2224 512-512 512z" fill="#4CAF50" p-id="4001"></path><path d="M341.333333 298.666667h341.333334c23.466667 0 42.666667 19.2 42.666666 42.666666v341.333334c0 23.466667-19.2 42.666667-42.666666 42.666666H341.333333c-23.466667 0-42.666667-19.2-42.666666-42.666666V341.333333c0-23.466667 19.2-42.666667 42.666666-42.666666z" fill="#FFFFFF" p-id="4002"></path><path d="M384 384v256h85.333333V512h85.333334v128H640V384h-85.333333v85.333333h-85.333334V384H384z" fill="#4CAF50" p-id="4003"></path></svg>
